<mxfile host="app.diagrams.net" modified="2023-02-03T07:43:49.834Z" agent="5.0 (Windows NT 10.0; Win64; x64) AppleWebKit/537.36 (KHTML, like Gecko) Chrome/109.0.0.0 Safari/537.36" etag="HRV_viQO7qdlZ6DDoCZf" version="20.5.3" type="github">
  <diagram id="ZOkf2mFuJH2bmY2VqWms" name="Page-1">
    <mxGraphModel dx="1422" dy="737" grid="0" gridSize="10" guides="1" tooltips="1" connect="1" arrows="1" fold="1" page="1" pageScale="1" pageWidth="850" pageHeight="1100" math="0" shadow="0">
      <root>
        <mxCell id="0" />
        <mxCell id="1" parent="0" />
        <mxCell id="LquwnoavHCImTSO5G4tM-7" style="edgeStyle=orthogonalEdgeStyle;rounded=0;orthogonalLoop=1;jettySize=auto;html=1;exitX=0.5;exitY=1;exitDx=0;exitDy=0;entryX=0.5;entryY=0;entryDx=0;entryDy=0;" edge="1" parent="1" source="LquwnoavHCImTSO5G4tM-1" target="LquwnoavHCImTSO5G4tM-2">
          <mxGeometry relative="1" as="geometry" />
        </mxCell>
        <mxCell id="LquwnoavHCImTSO5G4tM-1" value="Mulai" style="rounded=1;whiteSpace=wrap;html=1;" vertex="1" parent="1">
          <mxGeometry x="357" y="218" width="140" height="30" as="geometry" />
        </mxCell>
        <mxCell id="LquwnoavHCImTSO5G4tM-8" style="edgeStyle=orthogonalEdgeStyle;rounded=0;orthogonalLoop=1;jettySize=auto;html=1;exitX=0.5;exitY=1;exitDx=0;exitDy=0;entryX=0.5;entryY=0;entryDx=0;entryDy=0;" edge="1" parent="1" source="LquwnoavHCImTSO5G4tM-2" target="LquwnoavHCImTSO5G4tM-3">
          <mxGeometry relative="1" as="geometry" />
        </mxCell>
        <mxCell id="LquwnoavHCImTSO5G4tM-2" value="Studi Literatur" style="rounded=1;whiteSpace=wrap;html=1;" vertex="1" parent="1">
          <mxGeometry x="357" y="268" width="140" height="30" as="geometry" />
        </mxCell>
        <mxCell id="LquwnoavHCImTSO5G4tM-9" style="edgeStyle=orthogonalEdgeStyle;rounded=0;orthogonalLoop=1;jettySize=auto;html=1;exitX=0.5;exitY=1;exitDx=0;exitDy=0;entryX=0.5;entryY=0;entryDx=0;entryDy=0;" edge="1" parent="1" source="LquwnoavHCImTSO5G4tM-3" target="LquwnoavHCImTSO5G4tM-4">
          <mxGeometry relative="1" as="geometry" />
        </mxCell>
        <mxCell id="LquwnoavHCImTSO5G4tM-3" value="Analisis Kebutuhan" style="rounded=1;whiteSpace=wrap;html=1;" vertex="1" parent="1">
          <mxGeometry x="357" y="318" width="140" height="30" as="geometry" />
        </mxCell>
        <mxCell id="LquwnoavHCImTSO5G4tM-10" style="edgeStyle=orthogonalEdgeStyle;rounded=0;orthogonalLoop=1;jettySize=auto;html=1;exitX=0.5;exitY=1;exitDx=0;exitDy=0;entryX=0.5;entryY=0;entryDx=0;entryDy=0;" edge="1" parent="1" source="LquwnoavHCImTSO5G4tM-4" target="LquwnoavHCImTSO5G4tM-5">
          <mxGeometry relative="1" as="geometry" />
        </mxCell>
        <mxCell id="LquwnoavHCImTSO5G4tM-4" value="Perancangan Aplikasi" style="rounded=1;whiteSpace=wrap;html=1;" vertex="1" parent="1">
          <mxGeometry x="357" y="368" width="140" height="30" as="geometry" />
        </mxCell>
        <mxCell id="LquwnoavHCImTSO5G4tM-11" style="edgeStyle=orthogonalEdgeStyle;rounded=0;orthogonalLoop=1;jettySize=auto;html=1;exitX=0.5;exitY=1;exitDx=0;exitDy=0;entryX=0.5;entryY=0;entryDx=0;entryDy=0;" edge="1" parent="1" source="LquwnoavHCImTSO5G4tM-5" target="LquwnoavHCImTSO5G4tM-6">
          <mxGeometry relative="1" as="geometry" />
        </mxCell>
        <mxCell id="LquwnoavHCImTSO5G4tM-5" value="Pengujian" style="rounded=1;whiteSpace=wrap;html=1;" vertex="1" parent="1">
          <mxGeometry x="357" y="418" width="140" height="30" as="geometry" />
        </mxCell>
        <mxCell id="LquwnoavHCImTSO5G4tM-6" value="Penulisan Laporan" style="rounded=1;whiteSpace=wrap;html=1;" vertex="1" parent="1">
          <mxGeometry x="357" y="468" width="140" height="30" as="geometry" />
        </mxCell>
        <mxCell id="LquwnoavHCImTSO5G4tM-12" value="Selesai" style="rounded=1;whiteSpace=wrap;html=1;" vertex="1" parent="1">
          <mxGeometry x="357" y="518" width="140" height="30" as="geometry" />
        </mxCell>
      </root>
    </mxGraphModel>
  </diagram>
</mxfile>
